<svg width="1280" height="336" viewBox="0 0 1280 336" fill="none" xmlns="http://www.w3.org/2000/svg">
<rect width="1280" height="336" fill="#FAFAFA"/>
<path d="M543.9 176.635C542.392 180.279 541.592 184.108 540.816 188C540.059 187.529 540.303 186.797 540.3 186.223C540.259 176.861 540.326 167.496 540.188 158.136C540.061 149.535 540.049 140.936 539.97 132.336C539.954 130.645 540.327 129.314 541.177 128.027C546.559 119.878 553.005 113.419 560.416 108.476C561.717 107.608 562.048 107.871 562.053 109.735C562.071 116.406 562.051 123.078 562.091 129.748C562.117 134.018 562.316 138.287 562.274 142.554C562.194 150.869 559.65 157.628 554.104 162.377C549.813 166.05 546.36 170.687 543.9 176.635Z" fill="#4081C0"/>
<path d="M520.942 161.515C516.038 156.213 513.977 149.57 514.051 141.564C514.146 131.383 513.951 121.197 513.893 111.013C513.888 110.155 513.794 109.261 514.122 108.465C514.904 108.132 515.433 108.724 515.977 109.087C523.387 114.039 529.814 120.546 535.268 128.599C535.828 129.425 535.976 130.302 535.983 131.336C536.067 143.979 536.097 156.623 536.299 169.263C536.387 174.764 536.468 180.263 536.466 185.764C536.465 186.367 536.643 187.053 536.199 187.567C535.695 187.569 535.739 187.031 535.679 186.694C533.825 176.276 529.27 168.296 522.144 162.621C521.753 162.31 521.393 161.938 520.942 161.515Z" fill="#4081C0"/>
<path d="M506.561 123.464C508.177 124.847 509.699 126.177 511.233 127.483C512.157 128.269 512.331 129.433 512.331 130.712C512.333 134.575 512.374 138.44 512.336 142.303C512.237 152.346 515.639 159.954 522.24 165.401C524.381 167.167 526.298 169.283 527.957 171.754C528.269 172.218 528.719 172.626 528.629 173.469C527.957 173.584 527.519 172.981 527.031 172.631C524.268 170.648 521.332 169.38 518.194 168.659C506.54 165.981 498.246 153.297 498.056 139.221C497.972 132.959 498.008 126.694 498.005 120.43C498.004 118.438 498.279 118.203 499.694 118.978C502.032 120.258 504.293 121.731 506.561 123.464Z" fill="#4081C0"/>
<path d="M563.935 136.936C563.918 134.543 563.932 132.319 563.878 130.097C563.847 128.833 564.137 127.859 564.941 127.043C568.458 123.472 572.288 120.553 576.366 118.136C577.365 117.543 577.949 117.677 577.905 119.317C577.718 126.39 578.179 133.46 577.918 140.537C577.472 152.62 569.618 164.748 560.243 167.525C556.12 168.746 552.089 170.151 548.594 173.34C548.411 173.507 548.204 173.666 547.761 173.353C548.588 171.476 549.772 169.991 550.934 168.476C553.04 165.73 555.793 164.009 557.938 161.313C561.648 156.652 563.69 151.084 563.922 144.459C564.007 142.007 564.177 139.557 563.935 136.936Z" fill="#4081C0"/>
<path d="M609.578 134.875C614.969 135.083 619.5 137.128 623.172 141.008C626.844 144.888 628.719 149.497 628.797 154.836V155.07C628.797 160.461 626.883 165.031 623.055 168.781C619.122 172.609 614.305 174.602 608.602 174.758H607.977C602.664 174.758 598.094 172.805 594.266 168.898C590.385 164.966 588.445 160.318 588.445 154.953V154.836C588.471 148.951 590.698 143.99 595.125 139.953C595.724 139.406 596.544 138.951 597.586 138.586C598.628 138.221 600.112 137.688 602.039 136.984C603.185 136.568 604.448 136.112 605.828 135.617C607.26 135.122 608.458 134.875 609.422 134.875H609.578ZM608.68 139.055H608.25C605.568 139.055 603.224 140.396 601.219 143.078C599.005 146.073 597.898 149.784 597.898 154.211C597.898 158.638 598.966 162.44 601.102 165.617C603.263 168.768 605.789 170.409 608.68 170.539H609.188C611.844 170.539 614.161 169.198 616.141 166.516C618.354 163.547 619.461 159.849 619.461 155.422C619.461 150.995 618.38 147.206 616.219 144.055C614.057 140.878 611.544 139.211 608.68 139.055ZM671.883 167.297C671.883 168.651 672.534 169.562 673.836 170.031C675.138 170.474 675.789 171.19 675.789 172.18C675.789 173.247 675.19 173.781 673.992 173.781H664.5C663.406 173.781 662.859 173.352 662.859 172.492V171.203C662.365 171.385 661.557 171.698 660.438 172.141C659.318 172.557 658.263 172.935 657.273 173.273C654.799 174.107 652.247 174.654 649.617 174.914C649.201 174.94 648.81 174.953 648.445 174.953C646.023 174.953 643.745 174.159 641.609 172.57C638.224 169.992 636.531 164.602 636.531 156.398V142.297C636.531 140.995 635.88 140.109 634.578 139.641C633.276 139.172 632.625 138.43 632.625 137.414C632.625 136.346 633.211 135.812 634.383 135.812C635.997 135.734 637.612 135.474 639.227 135.031C640.867 134.589 642.977 133.938 645.555 133.078V156.398C645.555 161.945 646.661 165.786 648.875 167.922C650.203 169.224 651.805 169.875 653.68 169.875C654.799 169.875 656.062 169.641 657.469 169.172C657.964 169.016 658.654 168.768 659.539 168.43C660.424 168.091 661.167 167.805 661.766 167.57C661.922 167.518 662.143 167.44 662.43 167.336L662.859 167.18V142.297C662.859 140.995 662.208 140.109 660.906 139.641C659.604 139.172 658.953 138.43 658.953 137.414C658.953 136.346 659.539 135.812 660.711 135.812C662.326 135.734 663.94 135.474 665.555 135.031C667.195 134.589 669.305 133.938 671.883 133.078V167.297ZM695.438 149.758V167.297C695.438 168.651 696.076 169.562 697.352 170.031C698.654 170.474 699.305 171.19 699.305 172.18C699.305 173.247 698.719 173.781 697.547 173.781H684.305C683.107 173.781 682.508 173.247 682.508 172.18C682.508 171.19 683.159 170.474 684.461 170.031C685.763 169.562 686.414 168.651 686.414 167.297V142.297C686.414 140.995 685.763 140.109 684.461 139.641C683.159 139.172 682.508 138.43 682.508 137.414C682.508 136.346 683.094 135.812 684.266 135.812C685.88 135.734 687.495 135.474 689.109 135.031C690.75 134.589 692.859 133.938 695.438 133.078V138.156L699.5 136.633C701.505 135.878 703.081 135.305 704.227 134.914C704.695 134.784 705.216 134.719 705.789 134.719C706.883 134.719 708.445 135.07 710.477 135.773L709.5 146.867H706.023C705.008 143.065 703.315 141.164 700.945 141.164C700.685 141.164 700.438 141.177 700.203 141.203C698.615 141.385 697.443 142.284 696.688 143.898C695.932 145.487 695.516 147.44 695.438 149.758ZM723.016 117.531C726.505 117.531 728.25 119.224 728.25 122.609C728.25 126.021 726.505 127.727 723.016 127.727C719.526 127.727 717.781 126.021 717.781 122.609C717.781 119.224 719.526 117.531 723.016 117.531ZM727.508 167.297C727.508 168.651 728.159 169.562 729.461 170.031C730.763 170.474 731.414 171.19 731.414 172.18C731.414 173.247 730.828 173.781 729.656 173.781H716.414C715.216 173.781 714.617 173.247 714.617 172.18C714.617 171.19 715.268 170.474 716.57 170.031C717.872 169.562 718.523 168.651 718.523 167.297V142.297C718.523 140.995 717.872 140.109 716.57 139.641C715.268 139.172 714.617 138.43 714.617 137.414C714.617 136.346 715.203 135.812 716.375 135.812C717.99 135.734 719.604 135.474 721.219 135.031C722.859 134.589 724.956 133.938 727.508 133.078V167.297ZM749.539 138.43C750.06 138.247 750.867 137.948 751.961 137.531C753.055 137.115 754.096 136.737 755.086 136.398C757.586 135.513 760.164 134.94 762.82 134.68C763.185 134.654 763.549 134.641 763.914 134.641C766.362 134.641 768.667 135.461 770.828 137.102C774.188 139.68 775.867 145.057 775.867 153.234V167.297C775.867 168.651 776.518 169.562 777.82 170.031C779.122 170.474 779.773 171.19 779.773 172.18C779.773 173.247 779.188 173.781 778.016 173.781H768.523C767.43 173.781 766.883 173.352 766.883 172.492V153.234C766.883 147.714 765.776 143.872 763.562 141.711C762.234 140.409 760.633 139.758 758.758 139.758C757.638 139.758 756.401 139.979 755.047 140.422C754.474 140.63 753.745 140.904 752.859 141.242C752 141.555 751.245 141.841 750.594 142.102C749.995 142.31 749.643 142.44 749.539 142.492V167.297C749.539 168.651 750.19 169.562 751.492 170.031C752.794 170.474 753.445 171.19 753.445 172.18C753.445 173.247 752.859 173.781 751.688 173.781H738.445C737.247 173.781 736.648 173.247 736.648 172.18C736.648 171.19 737.299 170.474 738.602 170.031C739.904 169.562 740.555 168.651 740.555 167.297V142.297C740.555 140.995 739.904 140.109 738.602 139.641C737.299 139.172 736.648 138.43 736.648 137.414C736.648 136.346 737.234 135.812 738.406 135.812C740.021 135.734 741.635 135.474 743.25 135.031C744.891 134.589 746.987 133.938 749.539 133.078V138.43Z" fill="black"/>
<path d="M403.309 210.18L399.793 211.469C399.432 211.596 399.124 211.659 398.87 211.659H398.255C396.751 211.581 395.472 210.985 394.417 209.872C393.353 208.739 392.747 207.367 392.601 205.756C392.562 205.346 392.542 204.945 392.542 204.555C392.542 204.037 392.576 203.534 392.645 203.046C392.771 202.177 393.108 201.312 393.655 200.453C393.919 199.994 394.378 199.516 395.032 199.018C395.276 198.852 395.545 198.705 395.838 198.578C396.629 198.285 397.415 197.992 398.196 197.699C398.987 197.406 399.778 197.113 400.569 196.82C400.784 196.742 400.989 196.703 401.185 196.703H401.272C401.937 196.732 402.737 196.898 403.675 197.201C403.772 197.23 403.831 197.255 403.851 197.274C404.046 197.353 404.295 197.44 404.598 197.538C404.676 197.567 404.749 197.582 404.817 197.582C404.876 197.582 404.925 197.567 404.964 197.538C405.149 197.382 405.276 197.255 405.345 197.157C405.472 196.991 405.643 196.908 405.857 196.908C405.965 196.908 406.062 196.928 406.15 196.967C406.512 197.094 406.692 197.279 406.692 197.523V208.861C406.692 209.369 406.937 209.711 407.425 209.887C407.913 210.053 408.157 210.321 408.157 210.692C408.157 211.093 407.933 211.293 407.483 211.293H403.924C403.514 211.293 403.309 211.132 403.309 210.81V210.18ZM403.309 199.838C402.996 199.545 402.532 199.252 401.917 198.959C401.312 198.666 400.784 198.51 400.335 198.49H400.291C400.154 198.49 400.008 198.52 399.852 198.578C399.5 198.705 399.148 198.837 398.797 198.974C398.455 199.101 398.108 199.228 397.757 199.354C397.571 199.433 397.425 199.53 397.317 199.647C396.751 200.253 396.37 200.99 396.175 201.859C396.009 202.543 395.926 203.217 395.926 203.881C395.926 204.086 395.936 204.301 395.955 204.525C396.062 205.883 396.429 206.981 397.054 207.821C397.659 208.671 398.411 209.218 399.31 209.462C399.642 209.56 399.979 209.608 400.32 209.608C400.428 209.608 400.535 209.604 400.643 209.594C400.818 209.574 401.038 209.521 401.302 209.433C401.526 209.354 401.878 209.228 402.356 209.052C402.835 208.866 403.152 208.744 403.309 208.686V199.838ZM423.04 195.956V196.806L426.16 196.747H426.175C426.565 196.747 426.761 196.972 426.761 197.421C426.761 197.567 426.741 197.748 426.702 197.963C426.565 198.588 426.224 198.9 425.677 198.9L423.04 198.886V208.861C423.04 209.369 423.284 209.711 423.772 209.887C424.261 210.053 424.505 210.321 424.505 210.692C424.505 211.093 424.28 211.293 423.831 211.293H418.865C418.416 211.293 418.191 211.093 418.191 210.692C418.191 210.321 418.436 210.053 418.924 209.887C419.412 209.711 419.656 209.369 419.656 208.861V198.93C419.539 198.93 419.109 198.949 418.367 198.988H418.279C417.859 198.988 417.64 198.793 417.62 198.402V198.373C417.62 198.109 417.776 197.904 418.089 197.758C418.274 197.67 418.67 197.46 419.275 197.128C419.432 197.05 419.593 196.977 419.759 196.908C419.788 196.898 419.803 196.889 419.803 196.879C419.803 196.869 419.754 196.864 419.656 196.864V195.956C419.656 194.696 419.773 193.666 420.008 192.865C420.164 192.328 420.389 191.879 420.682 191.518C420.848 191.303 421.087 191.142 421.399 191.034L425.135 189.643C425.262 189.594 425.472 189.56 425.765 189.54H425.838C426.131 189.54 426.409 189.623 426.673 189.789C426.976 190.004 427.181 190.199 427.288 190.375C427.366 190.531 427.405 190.727 427.405 190.961C427.405 191.049 427.4 191.137 427.391 191.225C427.361 191.811 427.195 192.147 426.893 192.235H426.79C426.595 192.235 426.36 192.138 426.087 191.942C425.687 191.688 425.301 191.562 424.93 191.562C424.715 191.562 424.5 191.605 424.285 191.693C423.592 191.986 423.201 192.577 423.113 193.466C423.074 193.827 423.05 194.223 423.04 194.652C423.04 195.072 423.04 195.507 423.04 195.956ZM438.318 210.18L434.803 211.469C434.441 211.596 434.134 211.659 433.88 211.659H433.265C431.761 211.581 430.481 210.985 429.427 209.872C428.362 208.739 427.757 207.367 427.61 205.756C427.571 205.346 427.552 204.945 427.552 204.555C427.552 204.037 427.586 203.534 427.654 203.046C427.781 202.177 428.118 201.312 428.665 200.453C428.929 199.994 429.388 199.516 430.042 199.018C430.286 198.852 430.555 198.705 430.848 198.578C431.639 198.285 432.425 197.992 433.206 197.699C433.997 197.406 434.788 197.113 435.579 196.82C435.794 196.742 435.999 196.703 436.194 196.703H436.282C436.946 196.732 437.747 196.898 438.685 197.201C438.782 197.23 438.841 197.255 438.86 197.274C439.056 197.353 439.305 197.44 439.607 197.538C439.686 197.567 439.759 197.582 439.827 197.582C439.886 197.582 439.935 197.567 439.974 197.538C440.159 197.382 440.286 197.255 440.354 197.157C440.481 196.991 440.652 196.908 440.867 196.908C440.975 196.908 441.072 196.928 441.16 196.967C441.521 197.094 441.702 197.279 441.702 197.523V208.861C441.702 209.369 441.946 209.711 442.435 209.887C442.923 210.053 443.167 210.321 443.167 210.692C443.167 211.093 442.942 211.293 442.493 211.293H438.934C438.523 211.293 438.318 211.132 438.318 210.81V210.18ZM438.318 199.838C438.006 199.545 437.542 199.252 436.927 198.959C436.321 198.666 435.794 198.51 435.345 198.49H435.301C435.164 198.49 435.018 198.52 434.861 198.578C434.51 198.705 434.158 198.837 433.807 198.974C433.465 199.101 433.118 199.228 432.767 199.354C432.581 199.433 432.435 199.53 432.327 199.647C431.761 200.253 431.38 200.99 431.185 201.859C431.019 202.543 430.936 203.217 430.936 203.881C430.936 204.086 430.945 204.301 430.965 204.525C431.072 205.883 431.438 206.981 432.063 207.821C432.669 208.671 433.421 209.218 434.319 209.462C434.651 209.56 434.988 209.608 435.33 209.608C435.438 209.608 435.545 209.604 435.652 209.594C435.828 209.574 436.048 209.521 436.312 209.433C436.536 209.354 436.888 209.228 437.366 209.052C437.845 208.866 438.162 208.744 438.318 208.686V199.838ZM451.15 196.674C452.654 196.752 454.129 197.24 455.574 198.139L455.252 200.863C455.203 201.186 455.003 201.347 454.651 201.347H454.593C454.31 201.327 454.09 201.146 453.934 200.805C453.611 200.111 453.138 199.54 452.513 199.091C451.897 198.642 451.243 198.402 450.55 198.373H450.506C449.969 198.373 449.441 198.51 448.924 198.783C448.416 199.047 448.104 199.457 447.986 200.014C447.938 200.219 447.913 200.399 447.913 200.556C447.913 201.063 448.128 201.42 448.558 201.625C449.222 201.957 449.998 202.226 450.887 202.431C452.176 202.714 453.367 203.114 454.461 203.632C455.564 204.14 456.17 205.214 456.277 206.854V207.001C456.277 207.772 455.979 208.544 455.384 209.315C454.739 210.155 453.807 210.785 452.586 211.205C451.834 211.459 451.004 211.601 450.096 211.63H449.686C448.445 211.63 447.2 211.449 445.95 211.088L444.69 207.675L444.734 207.323C444.754 207.001 444.964 206.84 445.364 206.84H445.438C445.682 206.889 445.882 207.069 446.038 207.382C446.468 208.3 446.976 208.944 447.562 209.315C448.157 209.677 448.909 209.872 449.817 209.901H449.993C450.628 209.901 451.336 209.75 452.117 209.447C452.889 209.145 453.289 208.598 453.318 207.807V207.719C453.318 206.801 452.903 206.225 452.073 205.99C451.038 205.697 450.13 205.438 449.349 205.214C448.343 204.94 447.396 204.501 446.507 203.896C445.579 203.271 445.115 202.357 445.115 201.156V201.083C445.125 199.472 445.765 198.314 447.034 197.611C448.157 196.977 449.402 196.659 450.77 196.659C450.896 196.659 451.023 196.664 451.15 196.674ZM459.559 198.93C459.441 198.93 459.012 198.949 458.27 198.988H458.182C457.762 198.988 457.542 198.793 457.522 198.402V198.373C457.522 198.109 457.679 197.904 457.991 197.758C458.177 197.67 458.572 197.46 459.178 197.128C459.334 197.05 459.495 196.977 459.661 196.908C459.69 196.898 459.705 196.889 459.705 196.879C459.705 196.869 459.656 196.864 459.559 196.864V194.652C459.559 194.096 459.681 193.705 459.925 193.48C460.169 193.246 460.667 192.948 461.419 192.587C461.741 192.431 462.015 192.353 462.239 192.353C462.708 192.353 462.942 192.577 462.942 193.026V196.806L466.062 196.747H466.077C466.468 196.747 466.663 196.972 466.663 197.421C466.663 197.567 466.644 197.748 466.604 197.963C466.468 198.588 466.126 198.9 465.579 198.9L462.942 198.886V207.777C462.942 208.578 463.216 209.174 463.763 209.564C464.319 209.955 464.886 210.189 465.462 210.268V211.278C463.724 211.278 462.303 211.127 461.199 210.824C460.105 210.521 459.559 209.359 459.559 207.338V198.93ZM470.56 207.338C471.878 207.338 472.537 207.86 472.537 208.905V210.106C472.537 210.341 472.488 210.6 472.391 210.883C472.293 211.166 472.215 211.405 472.156 211.601C471.736 212.753 470.95 213.725 469.798 214.516C469.358 214.789 468.987 214.926 468.685 214.926C468.421 214.926 468.216 214.853 468.069 214.706C467.933 214.569 467.864 214.428 467.864 214.281C467.864 214.135 467.933 213.983 468.069 213.827C468.235 213.642 468.455 213.471 468.729 213.314C469.559 212.807 470.032 212.255 470.149 211.659H470.56C469.241 211.659 468.582 211.142 468.582 210.106V208.905C468.582 207.86 469.241 207.338 470.56 207.338ZM490.086 196.703H490.408C492.088 196.703 493.68 197.187 495.184 198.153L494.92 200.79C494.871 201.093 494.686 201.244 494.363 201.244H494.305C494.031 201.215 493.831 201.049 493.704 200.746C493.343 199.955 492.874 199.389 492.298 199.047C491.741 198.715 491.053 198.549 490.232 198.549H489.896C488.938 198.598 488.201 198.871 487.684 199.369C487.205 199.838 486.849 200.409 486.614 201.083C486.37 201.776 486.248 202.548 486.248 203.397C486.248 203.681 486.263 203.974 486.292 204.276C486.39 205.683 486.766 206.83 487.42 207.719C488.279 208.861 489.217 209.506 490.232 209.652C490.389 209.682 490.555 209.696 490.73 209.696C491.531 209.696 492.435 209.418 493.44 208.861C494.065 208.529 494.51 208.363 494.773 208.363C494.91 208.363 495.037 208.402 495.154 208.48C495.242 208.568 495.286 208.676 495.286 208.803C495.286 208.949 495.218 209.169 495.081 209.462C494.925 209.794 494.729 210.062 494.495 210.268C493.909 210.795 493.182 211.156 492.312 211.352C491.453 211.557 490.643 211.659 489.881 211.659C487.967 211.649 486.355 211.117 485.047 210.062C483.748 209.008 483.011 207.509 482.835 205.565C482.796 205.136 482.776 204.711 482.776 204.291C482.776 203.754 482.811 203.231 482.879 202.724C483.016 201.825 483.362 200.932 483.919 200.043C484.505 199.096 485.33 198.319 486.395 197.714C487.469 197.099 488.699 196.762 490.086 196.703ZM511.136 208.861C511.136 209.369 511.38 209.711 511.868 209.887C512.356 210.053 512.601 210.321 512.601 210.692C512.601 211.093 512.376 211.293 511.927 211.293H508.367C507.957 211.293 507.752 211.132 507.752 210.81V210.326C507.566 210.395 507.264 210.512 506.844 210.678C506.424 210.834 506.028 210.976 505.657 211.103C504.729 211.415 503.772 211.62 502.786 211.718C502.63 211.728 502.483 211.732 502.347 211.732C501.438 211.732 500.584 211.435 499.783 210.839C498.514 209.872 497.879 207.851 497.879 204.774V199.486C497.879 198.998 497.635 198.666 497.146 198.49C496.658 198.314 496.414 198.036 496.414 197.655C496.414 197.255 496.634 197.055 497.073 197.055C497.679 197.025 498.284 196.928 498.89 196.762C499.505 196.596 500.296 196.352 501.263 196.029V204.774C501.263 206.854 501.678 208.295 502.508 209.096C503.006 209.584 503.606 209.828 504.31 209.828C504.729 209.828 505.203 209.74 505.73 209.564C505.916 209.506 506.175 209.413 506.507 209.286C506.839 209.159 507.117 209.052 507.342 208.964C507.4 208.944 507.483 208.915 507.591 208.876L507.752 208.817V199.486C507.752 198.998 507.508 198.666 507.02 198.49C506.531 198.314 506.287 198.036 506.287 197.655C506.287 197.255 506.507 197.055 506.946 197.055C507.552 197.025 508.157 196.928 508.763 196.762C509.378 196.596 510.169 196.352 511.136 196.029V208.861ZM520.906 196.674C522.41 196.752 523.885 197.24 525.33 198.139L525.008 200.863C524.959 201.186 524.759 201.347 524.407 201.347H524.349C524.065 201.327 523.846 201.146 523.689 200.805C523.367 200.111 522.894 199.54 522.269 199.091C521.653 198.642 520.999 198.402 520.306 198.373H520.262C519.725 198.373 519.197 198.51 518.68 198.783C518.172 199.047 517.859 199.457 517.742 200.014C517.693 200.219 517.669 200.399 517.669 200.556C517.669 201.063 517.884 201.42 518.313 201.625C518.978 201.957 519.754 202.226 520.643 202.431C521.932 202.714 523.123 203.114 524.217 203.632C525.32 204.14 525.926 205.214 526.033 206.854V207.001C526.033 207.772 525.735 208.544 525.14 209.315C524.495 210.155 523.562 210.785 522.342 211.205C521.59 211.459 520.76 211.601 519.852 211.63H519.441C518.201 211.63 516.956 211.449 515.706 211.088L514.446 207.675L514.49 207.323C514.51 207.001 514.72 206.84 515.12 206.84H515.193C515.438 206.889 515.638 207.069 515.794 207.382C516.224 208.3 516.731 208.944 517.317 209.315C517.913 209.677 518.665 209.872 519.573 209.901H519.749C520.384 209.901 521.092 209.75 521.873 209.447C522.645 209.145 523.045 208.598 523.074 207.807V207.719C523.074 206.801 522.659 206.225 521.829 205.99C520.794 205.697 519.886 205.438 519.104 205.214C518.099 204.94 517.151 204.501 516.263 203.896C515.335 203.271 514.871 202.357 514.871 201.156V201.083C514.881 199.472 515.521 198.314 516.79 197.611C517.913 196.977 519.158 196.659 520.525 196.659C520.652 196.659 520.779 196.664 520.906 196.674ZM529.314 198.93C529.197 198.93 528.768 198.949 528.025 198.988H527.938C527.518 198.988 527.298 198.793 527.278 198.402V198.373C527.278 198.109 527.435 197.904 527.747 197.758C527.933 197.67 528.328 197.46 528.934 197.128C529.09 197.05 529.251 196.977 529.417 196.908C529.446 196.898 529.461 196.889 529.461 196.879C529.461 196.869 529.412 196.864 529.314 196.864V194.652C529.314 194.096 529.437 193.705 529.681 193.48C529.925 193.246 530.423 192.948 531.175 192.587C531.497 192.431 531.771 192.353 531.995 192.353C532.464 192.353 532.698 192.577 532.698 193.026V196.806L535.818 196.747H535.833C536.224 196.747 536.419 196.972 536.419 197.421C536.419 197.567 536.399 197.748 536.36 197.963C536.224 198.588 535.882 198.9 535.335 198.9L532.698 198.886V207.777C532.698 208.578 532.972 209.174 533.519 209.564C534.075 209.955 534.642 210.189 535.218 210.268V211.278C533.479 211.278 532.059 211.127 530.955 210.824C529.861 210.521 529.314 209.359 529.314 207.338V198.93ZM545.105 196.703C547.127 196.781 548.826 197.548 550.203 199.003C551.58 200.458 552.283 202.187 552.312 204.188V204.276C552.312 206.298 551.595 208.012 550.159 209.418C548.685 210.854 546.878 211.601 544.739 211.659H544.505C542.513 211.659 540.799 210.927 539.363 209.462C537.908 207.987 537.181 206.244 537.181 204.232V204.188C537.19 201.981 538.025 200.121 539.686 198.607C539.91 198.402 540.218 198.231 540.608 198.095C540.999 197.958 541.556 197.758 542.278 197.494C542.708 197.338 543.182 197.167 543.699 196.981C544.236 196.796 544.686 196.703 545.047 196.703H545.105ZM544.769 198.271H544.607C543.602 198.271 542.723 198.773 541.971 199.779C541.141 200.902 540.726 202.294 540.726 203.954C540.726 205.614 541.126 207.04 541.927 208.231C542.737 209.413 543.685 210.028 544.769 210.077H544.959C545.955 210.077 546.824 209.574 547.566 208.568C548.396 207.455 548.812 206.068 548.812 204.408C548.812 202.748 548.406 201.327 547.596 200.146C546.785 198.954 545.843 198.329 544.769 198.271ZM558.875 197.919C558.992 197.88 559.231 197.792 559.593 197.655C559.964 197.519 560.315 197.392 560.647 197.274C561.585 196.942 562.552 196.728 563.548 196.63C563.685 196.62 563.821 196.615 563.958 196.615C564.876 196.615 565.74 196.923 566.551 197.538C566.834 197.763 567.005 197.909 567.063 197.978C567.308 197.89 567.605 197.782 567.957 197.655C568.318 197.519 568.66 197.392 568.982 197.274C569.92 196.952 570.882 196.737 571.868 196.63C572.015 196.62 572.156 196.615 572.293 196.615C573.201 196.615 574.061 196.918 574.871 197.523C576.141 198.5 576.775 200.521 576.775 203.588V208.861C576.775 209.369 577.02 209.711 577.508 209.887C577.996 210.053 578.24 210.321 578.24 210.692C578.24 211.093 578.016 211.293 577.566 211.293H574.007C573.606 211.293 573.406 211.132 573.406 210.81V203.588C573.406 201.518 572.991 200.077 572.161 199.267C571.663 198.778 571.062 198.534 570.359 198.534C569.939 198.534 569.476 198.617 568.968 198.783C568.772 198.852 568.533 198.939 568.25 199.047C567.977 199.145 567.83 199.198 567.811 199.208C568.23 200.077 568.44 201.537 568.44 203.588V208.861C568.44 209.369 568.685 209.711 569.173 209.887C569.661 210.053 569.905 210.321 569.905 210.692C569.905 211.093 569.686 211.293 569.246 211.293H564.28C563.831 211.293 563.606 211.093 563.606 210.692C563.606 210.321 563.851 210.053 564.339 209.887C564.827 209.711 565.071 209.369 565.071 208.861V203.588C565.071 201.518 564.656 200.077 563.826 199.267C563.328 198.778 562.728 198.534 562.024 198.534C561.604 198.534 561.136 198.617 560.618 198.783C560.286 198.9 559.954 199.022 559.622 199.149C559.3 199.276 559.051 199.374 558.875 199.442V208.861C558.875 209.369 559.119 209.711 559.607 209.887C560.096 210.053 560.34 210.321 560.34 210.692C560.34 211.093 560.12 211.293 559.681 211.293H554.715C554.266 211.293 554.041 211.093 554.041 210.692C554.041 210.321 554.285 210.053 554.773 209.887C555.262 209.711 555.506 209.369 555.506 208.861V199.486C555.506 198.998 555.262 198.666 554.773 198.49C554.285 198.314 554.041 198.036 554.041 197.655C554.041 197.255 554.261 197.055 554.7 197.055C555.306 197.025 555.911 196.928 556.517 196.762C557.132 196.596 557.918 196.352 558.875 196.029V197.919ZM583.631 190.199C584.939 190.199 585.594 190.834 585.594 192.104C585.594 193.383 584.939 194.022 583.631 194.022C582.322 194.022 581.668 193.383 581.668 192.104C581.668 190.834 582.322 190.199 583.631 190.199ZM585.315 208.861C585.315 209.369 585.56 209.711 586.048 209.887C586.536 210.053 586.78 210.321 586.78 210.692C586.78 211.093 586.561 211.293 586.121 211.293H581.155C580.706 211.293 580.481 211.093 580.481 210.692C580.481 210.321 580.726 210.053 581.214 209.887C581.702 209.711 581.946 209.369 581.946 208.861V199.486C581.946 198.998 581.702 198.666 581.214 198.49C580.726 198.314 580.481 198.036 580.481 197.655C580.481 197.255 580.701 197.055 581.141 197.055C581.746 197.025 582.352 196.928 582.957 196.762C583.572 196.596 584.358 196.352 585.315 196.029V208.861ZM601.868 198.271L592.874 209.55H598.558C598.948 209.53 599.29 209.384 599.583 209.11C599.886 208.827 600.242 208.397 600.652 207.821C600.975 207.392 601.238 207.177 601.443 207.177C601.863 207.177 602.073 207.362 602.073 207.733V210.048C602.073 210.624 601.966 210.976 601.751 211.103C601.546 211.229 601.058 211.293 600.286 211.293L590.252 211.308C589.5 211.298 588.987 211.249 588.714 211.161C588.431 211.093 588.289 210.937 588.289 210.692C588.289 210.526 588.387 210.326 588.582 210.092L597.488 198.681H592.991C592.601 198.681 592.269 198.822 591.995 199.105C591.731 199.379 591.399 199.799 590.999 200.365C590.677 200.785 590.413 200.995 590.208 200.995C589.778 200.995 589.563 200.814 589.563 200.453V198.124C589.563 197.597 589.681 197.255 589.915 197.099C590.149 196.942 590.633 196.864 591.365 196.864H600.477C601.59 196.864 602.146 197.118 602.146 197.626C602.146 197.821 602.054 198.036 601.868 198.271ZM614.158 210.18L610.643 211.469C610.281 211.596 609.974 211.659 609.72 211.659H609.104C607.601 211.581 606.321 210.985 605.267 209.872C604.202 208.739 603.597 207.367 603.45 205.756C603.411 205.346 603.392 204.945 603.392 204.555C603.392 204.037 603.426 203.534 603.494 203.046C603.621 202.177 603.958 201.312 604.505 200.453C604.769 199.994 605.228 199.516 605.882 199.018C606.126 198.852 606.395 198.705 606.688 198.578C607.479 198.285 608.265 197.992 609.046 197.699C609.837 197.406 610.628 197.113 611.419 196.82C611.634 196.742 611.839 196.703 612.034 196.703H612.122C612.786 196.732 613.587 196.898 614.524 197.201C614.622 197.23 614.681 197.255 614.7 197.274C614.896 197.353 615.145 197.44 615.447 197.538C615.525 197.567 615.599 197.582 615.667 197.582C615.726 197.582 615.774 197.567 615.813 197.538C615.999 197.382 616.126 197.255 616.194 197.157C616.321 196.991 616.492 196.908 616.707 196.908C616.814 196.908 616.912 196.928 617 196.967C617.361 197.094 617.542 197.279 617.542 197.523V208.861C617.542 209.369 617.786 209.711 618.274 209.887C618.763 210.053 619.007 210.321 619.007 210.692C619.007 211.093 618.782 211.293 618.333 211.293H614.773C614.363 211.293 614.158 211.132 614.158 210.81V210.18ZM614.158 199.838C613.846 199.545 613.382 199.252 612.767 198.959C612.161 198.666 611.634 198.51 611.185 198.49H611.141C611.004 198.49 610.857 198.52 610.701 198.578C610.35 198.705 609.998 198.837 609.646 198.974C609.305 199.101 608.958 199.228 608.606 199.354C608.421 199.433 608.274 199.53 608.167 199.647C607.601 200.253 607.22 200.99 607.024 201.859C606.858 202.543 606.775 203.217 606.775 203.881C606.775 204.086 606.785 204.301 606.805 204.525C606.912 205.883 607.278 206.981 607.903 207.821C608.509 208.671 609.261 209.218 610.159 209.462C610.491 209.56 610.828 209.608 611.17 209.608C611.277 209.608 611.385 209.604 611.492 209.594C611.668 209.574 611.888 209.521 612.151 209.433C612.376 209.354 612.728 209.228 613.206 209.052C613.685 208.866 614.002 208.744 614.158 208.686V199.838ZM625.174 208.539C625.477 208.842 625.931 209.14 626.536 209.433C627.142 209.726 627.674 209.877 628.133 209.887H628.221C628.328 209.887 628.46 209.857 628.616 209.799C628.987 209.662 629.344 209.535 629.686 209.418C630.027 209.291 630.374 209.159 630.726 209.022C630.882 208.964 631.028 208.866 631.165 208.729C631.722 208.134 632.103 207.401 632.308 206.532C632.464 205.829 632.542 205.131 632.542 204.438C632.542 204.232 632.537 204.037 632.527 203.852C632.42 202.504 632.063 201.415 631.458 200.585C630.833 199.735 630.071 199.179 629.173 198.915C628.812 198.817 628.455 198.769 628.104 198.769C628.006 198.769 627.913 198.773 627.825 198.783C627.64 198.803 627.42 198.856 627.166 198.944C626.941 199.032 626.59 199.164 626.111 199.34C625.633 199.516 625.32 199.633 625.174 199.691V208.539ZM624.617 211.103C624.422 211.024 624.173 210.937 623.87 210.839C623.782 210.81 623.704 210.795 623.636 210.795C623.587 210.795 623.548 210.81 623.519 210.839C623.323 211.005 623.191 211.127 623.123 211.205C623.006 211.371 622.84 211.454 622.625 211.454C622.518 211.454 622.42 211.435 622.332 211.396C621.971 211.269 621.79 211.083 621.79 210.839V192.587C621.79 192.089 621.546 191.752 621.058 191.576C620.569 191.4 620.325 191.122 620.325 190.741C620.325 190.341 620.545 190.141 620.984 190.141C621.59 190.111 622.195 190.019 622.801 189.862C623.416 189.696 624.207 189.452 625.174 189.13V198.197L628.689 196.894C629.012 196.776 629.31 196.708 629.583 196.688C629.69 196.688 629.793 196.693 629.891 196.703C629.998 196.703 630.11 196.703 630.228 196.703C631.731 196.781 633.016 197.387 634.08 198.52C635.115 199.652 635.711 201.02 635.867 202.621C635.906 203.031 635.926 203.437 635.926 203.837C635.926 204.354 635.892 204.857 635.823 205.346C635.696 206.215 635.364 207.074 634.827 207.924C634.524 208.412 634.065 208.891 633.45 209.359C633.196 209.545 632.913 209.696 632.601 209.813C631.819 210.097 631.038 210.385 630.257 210.678C629.476 210.971 628.689 211.259 627.898 211.542C627.674 211.62 627.464 211.659 627.269 211.659H627.195C626.541 211.63 625.745 211.474 624.808 211.19C624.71 211.151 624.646 211.122 624.617 211.103ZM642.444 208.861C642.444 209.369 642.688 209.711 643.177 209.887C643.665 210.053 643.909 210.321 643.909 210.692C643.909 211.093 643.689 211.293 643.25 211.293H638.284C637.835 211.293 637.61 211.093 637.61 210.692C637.61 210.321 637.854 210.053 638.343 209.887C638.831 209.711 639.075 209.369 639.075 208.861V192.587C639.075 192.089 638.831 191.752 638.343 191.576C637.854 191.4 637.61 191.122 637.61 190.741C637.61 190.341 637.83 190.141 638.27 190.141C638.875 190.111 639.48 190.019 640.086 189.862C640.701 189.696 641.487 189.452 642.444 189.13V208.861ZM645.975 202.87C646.258 201.005 647.015 199.501 648.245 198.358C649.476 197.216 651.097 196.635 653.108 196.615H653.167C655.208 196.615 656.775 197.201 657.869 198.373C658.934 199.545 659.466 201.054 659.466 202.899C659.456 203.3 659.437 203.627 659.407 203.881C659.378 204.135 659.061 204.262 658.455 204.262H649.49C649.52 205.6 649.896 206.762 650.618 207.748C651.351 208.725 652.254 209.32 653.328 209.535C653.641 209.604 653.958 209.638 654.28 209.638C655.14 209.638 656.033 209.384 656.961 208.876C657.586 208.544 658.03 208.378 658.294 208.378C658.431 208.378 658.558 208.417 658.675 208.495C658.772 208.593 658.821 208.705 658.821 208.832C658.821 208.998 658.748 209.213 658.602 209.477C658.475 209.74 658.367 209.916 658.279 210.004C658.201 210.092 658.128 210.17 658.06 210.238C656.917 211.225 655.379 211.718 653.445 211.718C650.75 211.698 648.733 210.839 647.396 209.14C646.36 207.831 645.843 206.288 645.843 204.511C645.843 203.983 645.887 203.437 645.975 202.87ZM649.505 202.606H656.478C656.478 201.649 656.219 200.692 655.701 199.735C655.252 198.905 654.417 198.49 653.196 198.49H653.035C651.814 198.529 650.926 198.993 650.369 199.882C649.822 200.761 649.534 201.669 649.505 202.606ZM679.314 210.18L675.799 211.469C675.438 211.596 675.13 211.659 674.876 211.659H674.261C672.757 211.581 671.478 210.985 670.423 209.872C669.358 208.739 668.753 207.367 668.606 205.756C668.567 205.346 668.548 204.945 668.548 204.555C668.548 204.037 668.582 203.534 668.65 203.046C668.777 202.177 669.114 201.312 669.661 200.453C669.925 199.994 670.384 199.516 671.038 199.018C671.282 198.852 671.551 198.705 671.844 198.578C672.635 198.285 673.421 197.992 674.202 197.699C674.993 197.406 675.784 197.113 676.575 196.82C676.79 196.742 676.995 196.703 677.19 196.703H677.278C677.942 196.732 678.743 196.898 679.681 197.201C679.778 197.23 679.837 197.255 679.856 197.274C680.052 197.353 680.301 197.44 680.604 197.538C680.682 197.567 680.755 197.582 680.823 197.582C680.882 197.582 680.931 197.567 680.97 197.538C681.155 197.382 681.282 197.255 681.351 197.157C681.478 196.991 681.648 196.908 681.863 196.908C681.971 196.908 682.068 196.928 682.156 196.967C682.518 197.094 682.698 197.279 682.698 197.523V208.861C682.698 209.369 682.942 209.711 683.431 209.887C683.919 210.053 684.163 210.321 684.163 210.692C684.163 211.093 683.938 211.293 683.489 211.293H679.93C679.52 211.293 679.314 211.132 679.314 210.81V210.18ZM679.314 199.838C679.002 199.545 678.538 199.252 677.923 198.959C677.317 198.666 676.79 198.51 676.341 198.49H676.297C676.16 198.49 676.014 198.52 675.857 198.578C675.506 198.705 675.154 198.837 674.803 198.974C674.461 199.101 674.114 199.228 673.763 199.354C673.577 199.433 673.431 199.53 673.323 199.647C672.757 200.253 672.376 200.99 672.181 201.859C672.015 202.543 671.932 203.217 671.932 203.881C671.932 204.086 671.941 204.301 671.961 204.525C672.068 205.883 672.435 206.981 673.06 207.821C673.665 208.671 674.417 209.218 675.315 209.462C675.647 209.56 675.984 209.608 676.326 209.608C676.434 209.608 676.541 209.604 676.648 209.594C676.824 209.574 677.044 209.521 677.308 209.433C677.532 209.354 677.884 209.228 678.362 209.052C678.841 208.866 679.158 208.744 679.314 208.686V199.838ZM689.363 190.199C690.672 190.199 691.326 190.834 691.326 192.104C691.326 193.383 690.672 194.022 689.363 194.022C688.055 194.022 687.4 193.383 687.4 192.104C687.4 190.834 688.055 190.199 689.363 190.199ZM691.048 208.861C691.048 209.369 691.292 209.711 691.78 209.887C692.269 210.053 692.513 210.321 692.513 210.692C692.513 211.093 692.293 211.293 691.854 211.293H686.888C686.438 211.293 686.214 211.093 686.214 210.692C686.214 210.321 686.458 210.053 686.946 209.887C687.435 209.711 687.679 209.369 687.679 208.861V199.486C687.679 198.998 687.435 198.666 686.946 198.49C686.458 198.314 686.214 198.036 686.214 197.655C686.214 197.255 686.434 197.055 686.873 197.055C687.479 197.025 688.084 196.928 688.689 196.762C689.305 196.596 690.091 196.352 691.048 196.029V208.861ZM709.812 196.703H710.135C711.814 196.703 713.406 197.187 714.91 198.153L714.646 200.79C714.598 201.093 714.412 201.244 714.09 201.244H714.031C713.758 201.215 713.558 201.049 713.431 200.746C713.069 199.955 712.601 199.389 712.024 199.047C711.468 198.715 710.779 198.549 709.959 198.549H709.622C708.665 198.598 707.928 198.871 707.41 199.369C706.932 199.838 706.575 200.409 706.341 201.083C706.097 201.776 705.975 202.548 705.975 203.397C705.975 203.681 705.989 203.974 706.019 204.276C706.116 205.683 706.492 206.83 707.146 207.719C708.006 208.861 708.943 209.506 709.959 209.652C710.115 209.682 710.281 209.696 710.457 209.696C711.258 209.696 712.161 209.418 713.167 208.861C713.792 208.529 714.236 208.363 714.5 208.363C714.637 208.363 714.764 208.402 714.881 208.48C714.969 208.568 715.013 208.676 715.013 208.803C715.013 208.949 714.944 209.169 714.808 209.462C714.651 209.794 714.456 210.062 714.222 210.268C713.636 210.795 712.908 211.156 712.039 211.352C711.18 211.557 710.369 211.659 709.607 211.659C707.693 211.649 706.082 211.117 704.773 210.062C703.475 209.008 702.737 207.509 702.562 205.565C702.522 205.136 702.503 204.711 702.503 204.291C702.503 203.754 702.537 203.231 702.605 202.724C702.742 201.825 703.089 200.932 703.646 200.043C704.231 199.096 705.057 198.319 706.121 197.714C707.195 197.099 708.426 196.762 709.812 196.703ZM720.931 208.861C720.931 209.369 721.175 209.711 721.663 209.887C722.151 210.053 722.396 210.321 722.396 210.692C722.396 211.093 722.176 211.293 721.736 211.293H716.771C716.321 211.293 716.097 211.093 716.097 210.692C716.097 210.321 716.341 210.053 716.829 209.887C717.317 209.711 717.562 209.369 717.562 208.861V192.587C717.562 192.089 717.317 191.752 716.829 191.576C716.341 191.4 716.097 191.122 716.097 190.741C716.097 190.341 716.316 190.141 716.756 190.141C717.361 190.111 717.967 190.019 718.572 189.862C719.188 189.696 719.974 189.452 720.931 189.13V198.036C721.126 197.968 721.429 197.855 721.839 197.699C722.249 197.543 722.64 197.401 723.011 197.274C723.948 196.942 724.915 196.728 725.911 196.63C726.048 196.62 726.185 196.615 726.321 196.615C727.239 196.615 728.104 196.923 728.914 197.538C730.174 198.505 730.804 200.521 730.804 203.588V208.861C730.804 209.369 731.048 209.711 731.536 209.887C732.024 210.053 732.269 210.321 732.269 210.692C732.269 211.093 732.049 211.293 731.609 211.293H728.05C727.64 211.293 727.435 211.132 727.435 210.81V203.588C727.435 201.518 727.02 200.077 726.189 199.267C725.691 198.778 725.091 198.534 724.388 198.534C723.968 198.534 723.504 198.617 722.996 198.783C722.781 198.861 722.508 198.964 722.176 199.091C721.854 199.208 721.57 199.315 721.326 199.413C721.102 199.491 720.97 199.54 720.931 199.56V208.861ZM744.266 210.18L740.75 211.469C740.389 211.596 740.081 211.659 739.827 211.659H739.212C737.708 211.581 736.429 210.985 735.374 209.872C734.31 208.739 733.704 207.367 733.558 205.756C733.519 205.346 733.499 204.945 733.499 204.555C733.499 204.037 733.533 203.534 733.602 203.046C733.729 202.177 734.065 201.312 734.612 200.453C734.876 199.994 735.335 199.516 735.989 199.018C736.233 198.852 736.502 198.705 736.795 198.578C737.586 198.285 738.372 197.992 739.153 197.699C739.944 197.406 740.735 197.113 741.526 196.82C741.741 196.742 741.946 196.703 742.142 196.703H742.229C742.894 196.732 743.694 196.898 744.632 197.201C744.729 197.23 744.788 197.255 744.808 197.274C745.003 197.353 745.252 197.44 745.555 197.538C745.633 197.567 745.706 197.582 745.774 197.582C745.833 197.582 745.882 197.567 745.921 197.538C746.106 197.382 746.233 197.255 746.302 197.157C746.429 196.991 746.6 196.908 746.814 196.908C746.922 196.908 747.02 196.928 747.107 196.967C747.469 197.094 747.649 197.279 747.649 197.523V208.861C747.649 209.369 747.894 209.711 748.382 209.887C748.87 210.053 749.114 210.321 749.114 210.692C749.114 211.093 748.89 211.293 748.44 211.293H744.881C744.471 211.293 744.266 211.132 744.266 210.81V210.18ZM744.266 199.838C743.953 199.545 743.489 199.252 742.874 198.959C742.269 198.666 741.741 198.51 741.292 198.49H741.248C741.111 198.49 740.965 198.52 740.809 198.578C740.457 198.705 740.105 198.837 739.754 198.974C739.412 199.101 739.065 199.228 738.714 199.354C738.528 199.433 738.382 199.53 738.274 199.647C737.708 200.253 737.327 200.99 737.132 201.859C736.966 202.543 736.883 203.217 736.883 203.881C736.883 204.086 736.893 204.301 736.912 204.525C737.02 205.883 737.386 206.981 738.011 207.821C738.616 208.671 739.368 209.218 740.267 209.462C740.599 209.56 740.936 209.608 741.277 209.608C741.385 209.608 741.492 209.604 741.6 209.594C741.775 209.574 741.995 209.521 742.259 209.433C742.483 209.354 742.835 209.228 743.313 209.052C743.792 208.866 744.109 208.744 744.266 208.686V199.838ZM752.557 198.93C752.439 198.93 752.01 198.949 751.268 198.988H751.18C750.76 198.988 750.54 198.793 750.521 198.402V198.373C750.521 198.109 750.677 197.904 750.989 197.758C751.175 197.67 751.57 197.46 752.176 197.128C752.332 197.05 752.493 196.977 752.659 196.908C752.688 196.898 752.703 196.889 752.703 196.879C752.703 196.869 752.654 196.864 752.557 196.864V194.652C752.557 194.096 752.679 193.705 752.923 193.48C753.167 193.246 753.665 192.948 754.417 192.587C754.739 192.431 755.013 192.353 755.237 192.353C755.706 192.353 755.94 192.577 755.94 193.026V196.806L759.061 196.747H759.075C759.466 196.747 759.661 196.972 759.661 197.421C759.661 197.567 759.642 197.748 759.603 197.963C759.466 198.588 759.124 198.9 758.577 198.9L755.94 198.886V207.777C755.94 208.578 756.214 209.174 756.761 209.564C757.317 209.955 757.884 210.189 758.46 210.268V211.278C756.722 211.278 755.301 211.127 754.197 210.824C753.104 210.521 752.557 209.359 752.557 207.338V198.93ZM772.361 190.199C773.67 190.199 774.324 190.834 774.324 192.104C774.324 193.383 773.67 194.022 772.361 194.022C771.053 194.022 770.398 193.383 770.398 192.104C770.398 190.834 771.053 190.199 772.361 190.199ZM774.046 208.861C774.046 209.369 774.29 209.711 774.778 209.887C775.267 210.053 775.511 210.321 775.511 210.692C775.511 211.093 775.291 211.293 774.852 211.293H769.886C769.437 211.293 769.212 211.093 769.212 210.692C769.212 210.321 769.456 210.053 769.944 209.887C770.433 209.711 770.677 209.369 770.677 208.861V199.486C770.677 198.998 770.433 198.666 769.944 198.49C769.456 198.314 769.212 198.036 769.212 197.655C769.212 197.255 769.432 197.055 769.871 197.055C770.477 197.025 771.082 196.928 771.688 196.762C772.303 196.596 773.089 196.352 774.046 196.029V208.861ZM782.308 198.036C782.503 197.968 782.806 197.855 783.216 197.699C783.626 197.543 784.017 197.401 784.388 197.274C785.325 196.942 786.292 196.728 787.288 196.63C787.425 196.62 787.562 196.615 787.698 196.615C788.616 196.615 789.48 196.923 790.291 197.538C791.551 198.505 792.181 200.521 792.181 203.588V208.861C792.181 209.369 792.425 209.711 792.913 209.887C793.401 210.053 793.646 210.321 793.646 210.692C793.646 211.093 793.426 211.293 792.986 211.293H789.427C789.017 211.293 788.812 211.132 788.812 210.81V203.588C788.812 201.518 788.396 200.077 787.566 199.267C787.068 198.778 786.468 198.534 785.765 198.534C785.345 198.534 784.881 198.617 784.373 198.783C784.158 198.861 783.885 198.964 783.553 199.091C783.23 199.208 782.947 199.315 782.703 199.413C782.479 199.491 782.347 199.54 782.308 199.56V208.861C782.308 209.369 782.552 209.711 783.04 209.887C783.528 210.053 783.772 210.321 783.772 210.692C783.772 211.093 783.553 211.293 783.113 211.293H778.147C777.698 211.293 777.474 211.093 777.474 210.692C777.474 210.321 777.718 210.053 778.206 209.887C778.694 209.711 778.938 209.369 778.938 208.861V199.486C778.938 198.998 778.694 198.666 778.206 198.49C777.718 198.314 777.474 198.036 777.474 197.655C777.474 197.255 777.693 197.055 778.133 197.055C778.738 197.025 779.344 196.928 779.949 196.762C780.564 196.596 781.351 196.352 782.308 196.029V198.036ZM796.766 198.93C796.648 198.93 796.219 198.949 795.477 198.988H795.389C794.969 198.988 794.749 198.793 794.729 198.402V198.373C794.729 198.109 794.886 197.904 795.198 197.758C795.384 197.67 795.779 197.46 796.385 197.128C796.541 197.05 796.702 196.977 796.868 196.908C796.897 196.898 796.912 196.889 796.912 196.879C796.912 196.869 796.863 196.864 796.766 196.864V194.652C796.766 194.096 796.888 193.705 797.132 193.48C797.376 193.246 797.874 192.948 798.626 192.587C798.948 192.431 799.222 192.353 799.446 192.353C799.915 192.353 800.149 192.577 800.149 193.026V196.806L803.27 196.747H803.284C803.675 196.747 803.87 196.972 803.87 197.421C803.87 197.567 803.851 197.748 803.812 197.963C803.675 198.588 803.333 198.9 802.786 198.9L800.149 198.886V207.777C800.149 208.578 800.423 209.174 800.97 209.564C801.526 209.955 802.093 210.189 802.669 210.268V211.278C800.931 211.278 799.51 211.127 798.406 210.824C797.312 210.521 796.766 209.359 796.766 207.338V198.93ZM804.822 202.87C805.105 201.005 805.862 199.501 807.093 198.358C808.323 197.216 809.944 196.635 811.956 196.615H812.015C814.056 196.615 815.623 197.201 816.717 198.373C817.781 199.545 818.313 201.054 818.313 202.899C818.304 203.3 818.284 203.627 818.255 203.881C818.226 204.135 817.908 204.262 817.303 204.262H808.338C808.367 205.6 808.743 206.762 809.466 207.748C810.198 208.725 811.102 209.32 812.176 209.535C812.488 209.604 812.806 209.638 813.128 209.638C813.987 209.638 814.881 209.384 815.809 208.876C816.434 208.544 816.878 208.378 817.142 208.378C817.278 208.378 817.405 208.417 817.522 208.495C817.62 208.593 817.669 208.705 817.669 208.832C817.669 208.998 817.596 209.213 817.449 209.477C817.322 209.74 817.215 209.916 817.127 210.004C817.049 210.092 816.976 210.17 816.907 210.238C815.765 211.225 814.227 211.718 812.293 211.718C809.598 211.698 807.581 210.839 806.243 209.14C805.208 207.831 804.69 206.288 804.69 204.511C804.69 203.983 804.734 203.437 804.822 202.87ZM808.353 202.606H815.325C815.325 201.649 815.066 200.692 814.549 199.735C814.1 198.905 813.265 198.49 812.044 198.49H811.883C810.662 198.529 809.773 198.993 809.217 199.882C808.67 200.761 808.382 201.669 808.353 202.606ZM825.066 202.284V208.861C825.066 209.369 825.306 209.711 825.784 209.887C826.272 210.053 826.517 210.321 826.517 210.692C826.517 211.093 826.297 211.293 825.857 211.293H820.892C820.442 211.293 820.218 211.093 820.218 210.692C820.218 210.321 820.462 210.053 820.95 209.887C821.438 209.711 821.683 209.369 821.683 208.861V199.486C821.683 198.998 821.438 198.666 820.95 198.49C820.462 198.314 820.218 198.036 820.218 197.655C820.218 197.255 820.438 197.055 820.877 197.055C821.482 197.025 822.088 196.928 822.693 196.762C823.309 196.596 824.1 196.352 825.066 196.029V197.934L826.59 197.362C827.342 197.079 827.933 196.864 828.362 196.718C828.538 196.669 828.733 196.645 828.948 196.645C829.358 196.645 829.944 196.776 830.706 197.04L830.34 201.2H829.036C828.655 199.774 828.021 199.062 827.132 199.062C827.034 199.062 826.941 199.066 826.854 199.076C826.258 199.145 825.818 199.481 825.535 200.087C825.252 200.683 825.096 201.415 825.066 202.284ZM837.034 195.956V196.806L840.154 196.747H840.169C840.56 196.747 840.755 196.972 840.755 197.421C840.755 197.567 840.735 197.748 840.696 197.963C840.56 198.588 840.218 198.9 839.671 198.9L837.034 198.886V208.861C837.034 209.369 837.278 209.711 837.767 209.887C838.255 210.053 838.499 210.321 838.499 210.692C838.499 211.093 838.274 211.293 837.825 211.293H832.859C832.41 211.293 832.186 211.093 832.186 210.692C832.186 210.321 832.43 210.053 832.918 209.887C833.406 209.711 833.65 209.369 833.65 208.861V198.93C833.533 198.93 833.104 198.949 832.361 198.988H832.273C831.854 198.988 831.634 198.793 831.614 198.402V198.373C831.614 198.109 831.771 197.904 832.083 197.758C832.269 197.67 832.664 197.46 833.27 197.128C833.426 197.05 833.587 196.977 833.753 196.908C833.782 196.898 833.797 196.889 833.797 196.879C833.797 196.869 833.748 196.864 833.65 196.864V195.956C833.65 194.696 833.768 193.666 834.002 192.865C834.158 192.328 834.383 191.879 834.676 191.518C834.842 191.303 835.081 191.142 835.394 191.034L839.129 189.643C839.256 189.594 839.466 189.56 839.759 189.54H839.832C840.125 189.54 840.403 189.623 840.667 189.789C840.97 190.004 841.175 190.199 841.282 190.375C841.36 190.531 841.399 190.727 841.399 190.961C841.399 191.049 841.395 191.137 841.385 191.225C841.355 191.811 841.189 192.147 840.887 192.235H840.784C840.589 192.235 840.354 192.138 840.081 191.942C839.681 191.688 839.295 191.562 838.924 191.562C838.709 191.562 838.494 191.605 838.279 191.693C837.586 191.986 837.195 192.577 837.107 193.466C837.068 193.827 837.044 194.223 837.034 194.652C837.034 195.072 837.034 195.507 837.034 195.956ZM852.312 210.18L848.797 211.469C848.436 211.596 848.128 211.659 847.874 211.659H847.259C845.755 211.581 844.476 210.985 843.421 209.872C842.356 208.739 841.751 207.367 841.604 205.756C841.565 205.346 841.546 204.945 841.546 204.555C841.546 204.037 841.58 203.534 841.648 203.046C841.775 202.177 842.112 201.312 842.659 200.453C842.923 199.994 843.382 199.516 844.036 199.018C844.28 198.852 844.549 198.705 844.842 198.578C845.633 198.285 846.419 197.992 847.2 197.699C847.991 197.406 848.782 197.113 849.573 196.82C849.788 196.742 849.993 196.703 850.188 196.703H850.276C850.94 196.732 851.741 196.898 852.679 197.201C852.776 197.23 852.835 197.255 852.854 197.274C853.05 197.353 853.299 197.44 853.602 197.538C853.68 197.567 853.753 197.582 853.821 197.582C853.88 197.582 853.929 197.567 853.968 197.538C854.153 197.382 854.28 197.255 854.349 197.157C854.476 196.991 854.646 196.908 854.861 196.908C854.969 196.908 855.066 196.928 855.154 196.967C855.516 197.094 855.696 197.279 855.696 197.523V208.861C855.696 209.369 855.94 209.711 856.429 209.887C856.917 210.053 857.161 210.321 857.161 210.692C857.161 211.093 856.937 211.293 856.487 211.293H852.928C852.518 211.293 852.312 211.132 852.312 210.81V210.18ZM852.312 199.838C852 199.545 851.536 199.252 850.921 198.959C850.315 198.666 849.788 198.51 849.339 198.49H849.295C849.158 198.49 849.012 198.52 848.855 198.578C848.504 198.705 848.152 198.837 847.801 198.974C847.459 199.101 847.112 199.228 846.761 199.354C846.575 199.433 846.429 199.53 846.321 199.647C845.755 200.253 845.374 200.99 845.179 201.859C845.013 202.543 844.93 203.217 844.93 203.881C844.93 204.086 844.939 204.301 844.959 204.525C845.066 205.883 845.433 206.981 846.058 207.821C846.663 208.671 847.415 209.218 848.313 209.462C848.646 209.56 848.982 209.608 849.324 209.608C849.432 209.608 849.539 209.604 849.646 209.594C849.822 209.574 850.042 209.521 850.306 209.433C850.53 209.354 850.882 209.228 851.36 209.052C851.839 208.866 852.156 208.744 852.312 208.686V199.838ZM866.053 196.703H866.375C868.055 196.703 869.646 197.187 871.15 198.153L870.887 200.79C870.838 201.093 870.652 201.244 870.33 201.244H870.271C869.998 201.215 869.798 201.049 869.671 200.746C869.31 199.955 868.841 199.389 868.265 199.047C867.708 198.715 867.02 198.549 866.199 198.549H865.862C864.905 198.598 864.168 198.871 863.65 199.369C863.172 199.838 862.815 200.409 862.581 201.083C862.337 201.776 862.215 202.548 862.215 203.397C862.215 203.681 862.229 203.974 862.259 204.276C862.356 205.683 862.732 206.83 863.387 207.719C864.246 208.861 865.184 209.506 866.199 209.652C866.355 209.682 866.521 209.696 866.697 209.696C867.498 209.696 868.401 209.418 869.407 208.861C870.032 208.529 870.477 208.363 870.74 208.363C870.877 208.363 871.004 208.402 871.121 208.48C871.209 208.568 871.253 208.676 871.253 208.803C871.253 208.949 871.185 209.169 871.048 209.462C870.892 209.794 870.696 210.062 870.462 210.268C869.876 210.795 869.148 211.156 868.279 211.352C867.42 211.557 866.609 211.659 865.848 211.659C863.934 211.649 862.322 211.117 861.014 210.062C859.715 209.008 858.978 207.509 858.802 205.565C858.763 205.136 858.743 204.711 858.743 204.291C858.743 203.754 858.777 203.231 858.846 202.724C858.982 201.825 859.329 200.932 859.886 200.043C860.472 199.096 861.297 198.319 862.361 197.714C863.436 197.099 864.666 196.762 866.053 196.703ZM872.234 202.87C872.518 201.005 873.274 199.501 874.505 198.358C875.735 197.216 877.356 196.635 879.368 196.615H879.427C881.468 196.615 883.035 197.201 884.129 198.373C885.193 199.545 885.726 201.054 885.726 202.899C885.716 203.3 885.696 203.627 885.667 203.881C885.638 204.135 885.32 204.262 884.715 204.262H875.75C875.779 205.6 876.155 206.762 876.878 207.748C877.61 208.725 878.514 209.32 879.588 209.535C879.9 209.604 880.218 209.638 880.54 209.638C881.399 209.638 882.293 209.384 883.221 208.876C883.846 208.544 884.29 208.378 884.554 208.378C884.69 208.378 884.817 208.417 884.935 208.495C885.032 208.593 885.081 208.705 885.081 208.832C885.081 208.998 885.008 209.213 884.861 209.477C884.734 209.74 884.627 209.916 884.539 210.004C884.461 210.092 884.388 210.17 884.319 210.238C883.177 211.225 881.639 211.718 879.705 211.718C877.01 211.698 874.993 210.839 873.655 209.14C872.62 207.831 872.103 206.288 872.103 204.511C872.103 203.983 872.146 203.437 872.234 202.87ZM875.765 202.606H882.737C882.737 201.649 882.479 200.692 881.961 199.735C881.512 198.905 880.677 198.49 879.456 198.49H879.295C878.074 198.529 877.186 198.993 876.629 199.882C876.082 200.761 875.794 201.669 875.765 202.606Z" fill="black"/>
</svg>
