<svg width="20" height="20" viewBox="0 0 20 20" fill="none" xmlns="http://www.w3.org/2000/svg">
<path d="M11.4752 17.1587C11.0981 18.0697 10.898 19.0269 10.704 20C10.5148 19.8822 10.5757 19.6992 10.5751 19.5558C10.5648 17.2152 10.5816 14.8739 10.5471 12.5339C10.5154 10.3839 10.5122 8.23396 10.4925 6.08407C10.4887 5.66132 10.5817 5.32858 10.7943 5.00668C12.1398 2.96949 13.7513 1.35466 15.6041 0.118914C15.9294 -0.0980727 16.0121 -0.0322272 16.0133 0.433787C16.0178 2.10155 16.0128 3.76939 16.0228 5.43708C16.0293 6.50438 16.079 7.57183 16.0687 8.63858C16.0485 10.7174 15.4125 12.4071 14.026 13.5942C12.9534 14.5125 12.0901 15.6718 11.4752 17.1587Z" fill="black"/>
<path d="M5.73559 13.3787C4.50961 12.0531 3.99433 10.3924 4.01295 8.39102C4.03663 5.84567 3.98787 3.29925 3.97327 0.753263C3.97204 0.538695 3.94856 0.315358 4.03064 0.116212C4.22603 0.03296 4.35847 0.180904 4.49438 0.271732C6.34679 1.50973 7.9536 3.13644 9.31715 5.1497C9.45713 5.35637 9.49422 5.57541 9.49592 5.83396C9.51679 8.99466 9.52446 12.1558 9.57497 15.3157C9.59695 16.6909 9.61712 18.0657 9.61651 19.441C9.61645 19.5916 9.66082 19.7632 9.54996 19.8918C9.42378 19.8922 9.43494 19.7577 9.41994 19.6734C8.95627 17.0691 7.81753 15.074 6.03614 13.6552C5.93847 13.5774 5.84828 13.4846 5.73559 13.3787Z" fill="black"/>
<path d="M2.14033 3.86584C2.54428 4.21159 2.9247 4.54417 3.30832 4.87073C3.53914 5.06722 3.58279 5.35829 3.58287 5.67785C3.58313 6.64377 3.59343 7.60983 3.58392 8.57559C3.55918 11.0863 4.40985 12.9883 6.06007 14.3501C6.59532 14.7918 7.0746 15.3207 7.48918 15.9383C7.56719 16.0545 7.67977 16.1563 7.65726 16.3671C7.48931 16.396 7.37974 16.2453 7.25783 16.1578C6.56702 15.6619 5.83309 15.3449 5.04847 15.1646C2.13497 14.4953 0.0614889 11.3242 0.0140747 7.8052C-0.00702116 6.23964 0.00212454 4.67339 0.00117729 3.10744C0.00087531 2.60938 0.0697626 2.55062 0.423497 2.74439C1.00788 3.06451 1.57315 3.43281 2.14033 3.86584Z" fill="black"/>
<path d="M16.4838 7.23397C16.4795 6.63587 16.483 6.07978 16.4694 5.52435C16.4617 5.20824 16.5342 4.96479 16.7351 4.76078C17.6145 3.86788 18.572 3.1383 19.5914 2.53396C19.8413 2.38583 19.9872 2.41931 19.9763 2.82917C19.9294 4.5974 20.0446 6.36508 19.9793 8.13437C19.8678 11.1549 17.9044 14.1871 15.5608 14.8813C14.53 15.1866 13.5221 15.5378 12.6485 16.3349C12.6026 16.3768 12.551 16.4164 12.4402 16.3381C12.6469 15.8691 12.9429 15.4979 13.2333 15.1191C13.7598 14.4324 14.4481 14.0022 14.9844 13.3284C15.9119 12.1629 16.4225 10.7709 16.4803 9.11475C16.5017 8.50168 16.5442 7.88934 16.4838 7.23397Z" fill="black"/>
</svg>
